<?xml version="1.0" standalone="no"?>
<!DOCTYPE svg PUBLIC "-//W3C//DTD SVG 20010904//EN"
 "http://www.w3.org/TR/2001/REC-SVG-20010904/DTD/svg10.dtd">
<svg version="1.0" xmlns="http://www.w3.org/2000/svg"
 width="225.000000pt" height="225.000000pt" viewBox="0 0 225.000000 225.000000"
 preserveAspectRatio="xMidYMid meet">

<g transform="translate(0.000000,225.000000) scale(0.100000,-0.100000)"
fill="#000000" stroke="none">
<path d="M411 1951 c-49 -6 -58 -12 -112 -68 -32 -34 -77 -90 -100 -124 l-42
-62 22 -41 c83 -157 272 -303 608 -467 78 -38 145 -69 150 -69 4 0 28 39 53
87 54 104 171 282 247 376 30 38 53 70 51 72 -43 39 -297 179 -405 224 -148
61 -338 90 -472 72z"/>
<path d="M1985 1743 c-87 -391 -355 -829 -819 -1337 l-79 -87 57 -58 c32 -32
85 -74 118 -94 l60 -35 80 46 c305 178 584 490 793 886 l56 104 -11 85 c-22
177 -79 336 -173 481 -31 47 -58 86 -61 86 -2 0 -12 -35 -21 -77z"/>
<path d="M13 968 c17 -145 83 -317 172 -454 172 -265 479 -463 771 -498 l49
-6 -55 20 c-30 11 -86 36 -124 56 -223 113 -357 300 -382 531 -6 61 -7 62 -48
78 -122 48 -268 164 -341 270 -21 30 -40 55 -43 55 -3 0 -2 -24 1 -52z"/>
</g>
</svg>
